<svg width="35" height="34" viewBox="0 0 35 34" fill="none" xmlns="http://www.w3.org/2000/svg">
<path fill-rule="evenodd" clip-rule="evenodd" d="M12.3535 9.5625C12.3535 6.62849 14.732 4.25 17.666 4.25C20.6 4.25 22.9785 6.62849 22.9785 9.5625C22.9785 12.4965 20.6 14.875 17.666 14.875C14.732 14.875 12.3535 12.4965 12.3535 9.5625Z" fill="#262626"/>
<path fill-rule="evenodd" clip-rule="evenodd" d="M22.9785 13.8125C22.9785 11.4653 24.8813 9.5625 27.2285 9.5625C29.5757 9.5625 31.4785 11.4653 31.4785 13.8125C31.4785 16.1597 29.5757 18.0625 27.2285 18.0625C24.8813 18.0625 22.9785 16.1597 22.9785 13.8125Z" fill="#262626"/>
<path fill-rule="evenodd" clip-rule="evenodd" d="M3.85352 13.8125C3.85352 11.4653 5.75631 9.5625 8.10352 9.5625C10.4507 9.5625 12.3535 11.4653 12.3535 13.8125C12.3535 16.1597 10.4507 18.0625 8.10352 18.0625C5.75631 18.0625 3.85352 16.1597 3.85352 13.8125Z" fill="#262626"/>
<path fill-rule="evenodd" clip-rule="evenodd" d="M9.60499 21.4165C11.3021 18.7629 14.2778 17 17.666 17C21.0546 17 24.0307 18.7633 25.7277 21.4175C26.9009 23.2524 27.4085 25.4649 27.1704 27.6221C27.1332 27.9592 26.9373 28.2583 26.6431 28.4271C23.9977 29.945 20.9315 30.8125 17.666 30.8125C14.4005 30.8125 11.3343 29.945 8.68895 28.4271C8.39477 28.2583 8.19885 27.9592 8.16165 27.6221C7.92351 25.4645 8.43135 23.2516 9.60499 21.4165Z" fill="#262626"/>
<path d="M7.86592 20.1927C7.84886 20.2189 7.8319 20.2452 7.81505 20.2716C6.44731 22.4101 5.82138 24.957 6.01353 27.4678C5.15213 27.3369 4.31634 27.1265 3.51412 26.8439L3.35126 26.7866C3.05417 26.682 2.84659 26.4122 2.8216 26.0982L2.80791 25.9261C2.79671 25.7853 2.79102 25.6432 2.79102 25.5C2.79102 22.6456 5.04216 20.317 7.86592 20.1927Z" fill="#262626"/>
<path d="M29.319 27.4677C29.5111 24.9574 28.8855 22.4111 27.5183 20.2728C27.5012 20.246 27.4839 20.2193 27.4666 20.1927C30.2901 20.3173 32.541 22.6458 32.541 25.5C32.541 25.6432 32.5353 25.7853 32.5241 25.9261L32.5104 26.0982C32.4854 26.4122 32.2779 26.682 31.9808 26.7866L31.8179 26.8439C31.0158 27.1264 30.1802 27.3368 29.319 27.4677Z" fill="#262626"/>
</svg>
