<svg width="34" height="34" viewBox="0 0 34 34" fill="none" xmlns="http://www.w3.org/2000/svg">
<path fill-rule="evenodd" clip-rule="evenodd" d="M14.8747 5.37991V12.4922C14.8747 13.6194 14.427 14.7004 13.6299 15.4974L10.2625 18.8649C12.7379 18.6887 15.2399 19.1822 17.4749 20.2997C19.973 21.5487 22.8641 21.8762 25.5678 21.2003L25.9715 21.0994L20.3695 15.4974C19.5725 14.7004 19.1247 13.6194 19.1247 12.4922V5.37991C18.4223 5.3352 17.7137 5.3125 16.9997 5.3125C16.2857 5.3125 15.5772 5.3352 14.8747 5.37991ZM21.2497 5.57566C21.7785 5.57632 22.237 5.18263 22.3041 4.64452C22.3767 4.06223 21.9635 3.53132 21.3812 3.45871C21.0177 3.41338 20.6525 3.37362 20.2856 3.33951C19.2036 3.2389 18.1075 3.1875 16.9997 3.1875C15.892 3.1875 14.7959 3.2389 13.7139 3.33951C13.347 3.37362 12.9818 3.41338 12.6183 3.45871C12.036 3.53132 11.6228 4.06223 11.6954 4.64452C11.7625 5.18263 12.221 5.57632 12.7497 5.57566V12.4922C12.7497 13.0558 12.5259 13.5963 12.1273 13.9948L3.21198 22.9102C0.915369 25.2068 1.93274 29.2505 5.29577 29.8247C9.1007 30.4743 13.0111 30.8125 16.9997 30.8125C20.9883 30.8125 24.8988 30.4743 28.7037 29.8247C32.0667 29.2505 33.0841 25.2068 30.7875 22.9102L21.8721 13.9948C21.4736 13.5963 21.2497 13.0558 21.2497 12.4922V5.57566Z" fill="#262626"/>
</svg>
