<svg width="81" height="80" viewBox="0 0 81 80" fill="none" xmlns="http://www.w3.org/2000/svg">
<g clip-path="url(#clip0_293_593)">
<path d="M49.9421 48.5744C53.0846 54.3148 56.1521 59.9102 59.2141 65.5056C61.4845 69.6573 63.7522 73.8116 66.0092 77.9686C66.8304 79.4795 66.5271 79.9947 64.8176 79.9947C48.721 80.0001 32.6244 80.0001 16.5278 79.9947C14.9552 79.9947 14.6117 79.4607 15.3362 78.1323C20.937 67.8646 26.5486 57.6022 32.1574 47.3426C32.2433 47.1869 32.3641 47.0528 32.5251 46.83C33.9206 47.6405 34.723 49.884 36.607 49.2936C38.1179 48.8186 39.3738 47.5358 41.0538 46.4033C41.7837 47.1923 42.7203 48.2577 43.716 49.2641C45.8334 51.4057 46.9793 51.4057 49.1075 49.3339C49.3275 49.1192 49.561 48.9206 49.9421 48.5771V48.5744Z" fill="#262626"/>
<path d="M45.082 2.77539H67.9951C67.6651 3.26382 67.4853 3.58854 67.2491 3.86764C65.7758 5.60666 64.2783 7.3242 62.8103 9.0659C61.5087 10.6117 61.5275 12.0958 62.8425 13.6469C64.5144 15.614 66.1971 17.5704 68.0757 19.7603H45.082V2.77539Z" fill="#FF9E66"/>
<path d="M11.8072 79.8982H0.42041C5.1034 71.5252 9.65758 63.3883 14.2171 55.2354C16.1887 56.7167 18.3562 56.6031 20.7196 54.8945C20.7599 54.9133 20.8082 54.924 20.8404 54.9509C22.6224 56.4591 22.956 58.2294 21.8414 60.2619C18.8867 65.6614 15.9078 71.0475 13.0068 76.4739C12.462 77.4937 12.2232 78.6772 11.8072 79.8955V79.8982Z" fill="#262626"/>
<path d="M60.4726 54.6472C62.9219 56.6403 65.1681 56.8326 67.2113 55.2242C71.7708 63.3799 76.3197 71.514 81 79.8844H69.6534C69.1892 78.6123 68.8966 77.3644 68.3089 76.2695C65.1288 70.3332 61.895 64.4265 58.6289 58.5385C58.162 57.6959 58.1217 57.1645 58.9 56.5097C59.5038 56.0025 59.9386 55.2913 60.4726 54.6445V54.6472Z" fill="#262626"/>
<path d="M48.5572 46.0297C47.8406 46.6496 47.167 47.232 46.2787 48.0049C45.2079 46.8697 44.0889 45.6218 42.9027 44.4383C41.4106 42.9515 39.9721 42.9945 38.4907 44.4866C37.8386 45.1414 37.1757 45.7909 36.274 46.6872C35.638 45.9465 34.9859 45.2729 34.4545 44.5161C34.2613 44.2397 34.1888 43.6734 34.3418 43.389C36.0781 40.1256 37.8493 36.8811 39.6528 33.6527C40.3022 32.4906 41.161 32.5282 41.8292 33.7412C44.0459 37.756 46.2358 41.7842 48.5572 46.0324V46.0297Z" fill="#FF9E66"/>
<path d="M42.0843 30.0173H39.2933V28.6781C39.2933 19.8703 39.2933 11.0625 39.296 2.25744C39.296 1.81195 39.1967 1.27254 39.406 0.945129C39.6824 0.518427 40.2326 -0.0183059 40.6405 0.000479714C41.1289 0.0246327 41.6388 0.537212 42.0387 0.939762C42.2078 1.10883 42.138 1.53822 42.138 1.84952C42.1434 10.9686 42.1407 20.0904 42.138 29.2095C42.138 29.4698 42.1031 29.7274 42.0816 30.0173H42.0843Z" fill="#FF9E66"/>
<path d="M20.6336 43.8452C21.1086 44.5725 21.3904 44.9536 21.6212 45.3642C22.7859 47.4252 23.9318 49.4943 25.0912 51.5554C25.6619 52.5716 25.585 53.5619 24.8604 54.5262C23.6205 53.6218 22.4961 52.4168 21.114 51.8908C19.4045 51.2441 18.5269 53.0797 17.1744 54.0753C16.7638 53.5386 16.3612 53.0153 15.8433 52.3363C17.322 49.7144 18.9 46.918 20.6336 43.8398V43.8452Z" fill="#262626"/>
<path d="M65.6736 52.5081C65.1691 53.0609 64.7236 53.5467 64.2969 54.0136C61.8762 52.271 59.3258 52.4786 56.6458 54.6362C55.7333 53.7077 55.5347 52.8006 56.2942 51.5876C57.5475 49.5829 58.629 47.4735 59.791 45.4125C60.0245 44.9992 60.2955 44.6074 60.7813 43.8398C61.7125 45.4661 62.4988 46.8214 63.269 48.1847C64.058 49.5829 64.8336 50.9918 65.6736 52.5081Z" fill="#262626"/>
</g>
<defs>
<clipPath id="clip0_293_593">
<rect width="80.5797" height="80" fill="white" transform="translate(0.42041)"/>
</clipPath>
</defs>
</svg>
