<svg width="183" height="40" viewBox="0 0 183 40" fill="none" xmlns="http://www.w3.org/2000/svg">
<path d="M11.6667 19.9997L20 11.6663L28.3334 19.9997L20 28.333L11.6667 19.9997Z" fill="#1A1A1A"/>
<path d="M36.6667 9.99967V19.9997L20 3.33301H30L36.6667 9.99967Z" fill="#1A1A1A"/>
<path d="M36.6667 29.9997V19.9997L20 36.6663H30L36.6667 29.9997Z" fill="#1A1A1A"/>
<path d="M3.33337 29.9997V19.9997L20 36.6663H10L3.33337 29.9997Z" fill="#1A1A1A"/>
<path d="M3.33337 9.99967V19.9997L20 3.33301H10L3.33337 9.99967Z" fill="#1A1A1A"/>
<path d="M46.6466 27.5004V12.3337H49.1383V27.5004H46.6466ZM48.3583 27.5004V25.2254H56.2883V27.5004H48.3583Z" fill="#262626"/>
<path d="M58.2557 27.5004V17.1004H60.639V27.5004H58.2557ZM59.4474 15.1937C59.0429 15.1937 58.7035 15.0565 58.429 14.7821C58.169 14.5076 58.039 14.1682 58.039 13.7637C58.039 13.3593 58.169 13.0198 58.429 12.7454C58.7035 12.4709 59.0429 12.3337 59.4474 12.3337C59.8663 12.3337 60.2057 12.4709 60.4657 12.7454C60.7257 13.0198 60.8557 13.3593 60.8557 13.7637C60.8557 14.1682 60.7257 14.5076 60.4657 14.7821C60.2057 15.0565 59.8663 15.1937 59.4474 15.1937Z" fill="#262626"/>
<path d="M64.8938 27.5004V12.7671H67.2772V27.5004H64.8938ZM62.4022 19.2671V17.1004H76.0522V19.2671H62.4022ZM71.1772 27.5004V12.7671H73.5605V27.5004H71.1772Z" fill="#262626"/>
<path d="M77.7848 27.5004V11.9004H80.1682V27.5004H77.7848Z" fill="#262626"/>
<path d="M87.6523 27.7171C86.6123 27.7171 85.6734 27.4859 84.8356 27.0237C84.0123 26.5471 83.3551 25.8971 82.864 25.0737C82.3873 24.2504 82.149 23.3259 82.149 22.3004C82.149 21.2748 82.3873 20.3576 82.864 19.5487C83.3406 18.7254 83.9834 18.0754 84.7923 17.5987C85.6156 17.1221 86.5256 16.8837 87.5223 16.8837C88.4901 16.8837 89.3423 17.1076 90.079 17.5554C90.8301 18.0032 91.4151 18.6171 91.834 19.3971C92.2673 20.1771 92.484 21.0654 92.484 22.0621C92.484 22.2354 92.4695 22.4159 92.4406 22.6037C92.4262 22.7771 92.3973 22.9721 92.354 23.1887H83.8173V21.2387H91.119L90.2306 22.0187C90.2017 21.3832 90.079 20.8487 89.8623 20.4154C89.6456 19.9821 89.3351 19.6498 88.9306 19.4187C88.5406 19.1876 88.0567 19.0721 87.479 19.0721C86.8723 19.0721 86.3451 19.2021 85.8973 19.4621C85.4495 19.7221 85.1029 20.0904 84.8573 20.5671C84.6117 21.0293 84.489 21.5854 84.489 22.2354C84.489 22.8854 84.619 23.4559 84.879 23.9471C85.139 24.4382 85.5073 24.8209 85.984 25.0954C86.4606 25.3554 87.0095 25.4854 87.6306 25.4854C88.1651 25.4854 88.6562 25.3915 89.104 25.2037C89.5662 25.0159 89.9562 24.7415 90.274 24.3804L91.7906 25.9187C91.2851 26.5109 90.6712 26.9587 89.949 27.2621C89.2267 27.5654 88.4612 27.7171 87.6523 27.7171Z" fill="#262626"/>
<path d="M99.0571 27.5004V12.3337H101.549V27.5004H99.0571ZM100.769 27.5004V25.2254H108.699V27.5004H100.769Z" fill="#262626"/>
<path d="M115.116 27.7171C114.076 27.7171 113.138 27.4859 112.3 27.0237C111.476 26.5471 110.819 25.8971 110.328 25.0737C109.851 24.2504 109.613 23.3259 109.613 22.3004C109.613 21.2748 109.851 20.3576 110.328 19.5487C110.805 18.7254 111.448 18.0754 112.256 17.5987C113.08 17.1221 113.99 16.8837 114.986 16.8837C115.954 16.8837 116.806 17.1076 117.543 17.5554C118.294 18.0032 118.879 18.6171 119.298 19.3971C119.731 20.1771 119.948 21.0654 119.948 22.0621C119.948 22.2354 119.934 22.4159 119.905 22.6037C119.89 22.7771 119.861 22.9721 119.818 23.1887H111.281V21.2387H118.583L117.695 22.0187C117.666 21.3832 117.543 20.8487 117.326 20.4154C117.11 19.9821 116.799 19.6498 116.395 19.4187C116.005 19.1876 115.521 19.0721 114.943 19.0721C114.336 19.0721 113.809 19.2021 113.361 19.4621C112.914 19.7221 112.567 20.0904 112.321 20.5671C112.076 21.0293 111.953 21.5854 111.953 22.2354C111.953 22.8854 112.083 23.4559 112.343 23.9471C112.603 24.4382 112.971 24.8209 113.448 25.0954C113.925 25.3554 114.474 25.4854 115.095 25.4854C115.629 25.4854 116.12 25.3915 116.568 25.2037C117.03 25.0159 117.42 24.7415 117.738 24.3804L119.255 25.9187C118.749 26.5109 118.135 26.9587 117.413 27.2621C116.691 27.5654 115.925 27.7171 115.116 27.7171Z" fill="#262626"/>
<path d="M126.214 27.7171C125.275 27.7171 124.423 27.4787 123.657 27.0021C122.906 26.5254 122.306 25.8826 121.859 25.0737C121.425 24.2504 121.209 23.3332 121.209 22.3221C121.209 21.2965 121.425 20.3793 121.859 19.5704C122.306 18.7471 122.906 18.0971 123.657 17.6204C124.423 17.1293 125.275 16.8837 126.214 16.8837C127.008 16.8837 127.709 17.0571 128.315 17.4037C128.936 17.7359 129.428 18.1982 129.789 18.7904C130.15 19.3826 130.33 20.0543 130.33 20.8054V23.7954C130.33 24.5465 130.15 25.2182 129.789 25.8104C129.442 26.4026 128.958 26.8721 128.337 27.2187C127.716 27.5509 127.008 27.7171 126.214 27.7171ZM126.604 25.4637C127.485 25.4637 128.193 25.1676 128.727 24.5754C129.276 23.9832 129.55 23.2248 129.55 22.3004C129.55 21.6793 129.428 21.1304 129.182 20.6537C128.936 20.1771 128.59 19.8087 128.142 19.5487C127.709 19.2743 127.196 19.1371 126.604 19.1371C126.026 19.1371 125.513 19.2743 125.065 19.5487C124.632 19.8087 124.285 20.1771 124.025 20.6537C123.78 21.1304 123.657 21.6793 123.657 22.3004C123.657 22.9215 123.78 23.4704 124.025 23.9471C124.285 24.4237 124.632 24.7993 125.065 25.0737C125.513 25.3337 126.026 25.4637 126.604 25.4637ZM129.399 27.5004V24.7054L129.81 22.1704L129.399 19.6571V17.1004H131.782V27.5004H129.399Z" fill="#262626"/>
<path d="M134.427 27.5004V17.1004H136.81V27.5004H134.427ZM136.81 21.7154L135.987 21.3037C135.987 19.9893 136.276 18.9276 136.854 18.1187C137.446 17.2954 138.334 16.8837 139.519 16.8837C140.039 16.8837 140.508 16.9776 140.927 17.1654C141.346 17.3532 141.736 17.6565 142.097 18.0754L140.537 19.6787C140.349 19.4765 140.14 19.3321 139.909 19.2454C139.678 19.1587 139.41 19.1154 139.107 19.1154C138.443 19.1154 137.894 19.3248 137.46 19.7437C137.027 20.1626 136.81 20.8198 136.81 21.7154Z" fill="#262626"/>
<path d="M150.379 27.5004V21.4987C150.379 20.8054 150.155 20.2348 149.707 19.7871C149.274 19.3393 148.71 19.1154 148.017 19.1154C147.555 19.1154 147.143 19.2165 146.782 19.4187C146.421 19.6209 146.139 19.9026 145.937 20.2637C145.735 20.6248 145.634 21.0365 145.634 21.4987L144.702 20.9787C144.702 20.1843 144.875 19.4837 145.222 18.8771C145.569 18.2559 146.045 17.7721 146.652 17.4254C147.273 17.0643 147.966 16.8837 148.732 16.8837C149.512 16.8837 150.205 17.0859 150.812 17.4904C151.419 17.8804 151.895 18.3932 152.242 19.0287C152.589 19.6498 152.762 20.2998 152.762 20.9787V27.5004H150.379ZM143.25 27.5004V17.1004H145.634V27.5004H143.25Z" fill="#262626"/>
<path d="M160.016 27.7171C158.976 27.7171 158.037 27.4859 157.199 27.0237C156.376 26.5471 155.718 25.8971 155.227 25.0737C154.751 24.2504 154.512 23.3259 154.512 22.3004C154.512 21.2748 154.751 20.3576 155.227 19.5487C155.704 18.7254 156.347 18.0754 157.156 17.5987C157.979 17.1221 158.889 16.8837 159.886 16.8837C160.853 16.8837 161.706 17.1076 162.442 17.5554C163.193 18.0032 163.778 18.6171 164.197 19.3971C164.631 20.1771 164.847 21.0654 164.847 22.0621C164.847 22.2354 164.833 22.4159 164.804 22.6037C164.789 22.7771 164.761 22.9721 164.717 23.1887H156.181V21.2387H163.482L162.594 22.0187C162.565 21.3832 162.442 20.8487 162.226 20.4154C162.009 19.9821 161.698 19.6498 161.294 19.4187C160.904 19.1876 160.42 19.0721 159.842 19.0721C159.236 19.0721 158.708 19.2021 158.261 19.4621C157.813 19.7221 157.466 20.0904 157.221 20.5671C156.975 21.0293 156.852 21.5854 156.852 22.2354C156.852 22.8854 156.982 23.4559 157.242 23.9471C157.502 24.4382 157.871 24.8209 158.347 25.0954C158.824 25.3554 159.373 25.4854 159.994 25.4854C160.528 25.4854 161.019 25.3915 161.467 25.2037C161.929 25.0159 162.319 24.7415 162.637 24.3804L164.154 25.9187C163.648 26.5109 163.034 26.9587 162.312 27.2621C161.59 27.5654 160.824 27.7171 160.016 27.7171Z" fill="#262626"/>
<path d="M166.758 27.5004V17.1004H169.141V27.5004H166.758ZM169.141 21.7154L168.318 21.3037C168.318 19.9893 168.607 18.9276 169.184 18.1187C169.777 17.2954 170.665 16.8837 171.849 16.8837C172.369 16.8837 172.839 16.9776 173.258 17.1654C173.677 17.3532 174.067 17.6565 174.428 18.0754L172.868 19.6787C172.68 19.4765 172.471 19.3321 172.239 19.2454C172.008 19.1587 171.741 19.1154 171.438 19.1154C170.773 19.1154 170.224 19.3248 169.791 19.7437C169.358 20.1626 169.141 20.8198 169.141 21.7154Z" fill="#262626"/>
<path d="M178.75 27.7171C178.172 27.7171 177.616 27.6448 177.082 27.5004C176.547 27.3415 176.056 27.1248 175.608 26.8504C175.161 26.5615 174.771 26.2148 174.438 25.8104L175.955 24.2937C176.316 24.7126 176.728 25.0304 177.19 25.2471C177.667 25.4493 178.201 25.5504 178.793 25.5504C179.328 25.5504 179.732 25.4709 180.007 25.3121C180.281 25.1532 180.418 24.9221 180.418 24.6187C180.418 24.3009 180.288 24.0554 180.028 23.8821C179.768 23.7087 179.429 23.5643 179.01 23.4487C178.606 23.3187 178.172 23.1887 177.71 23.0587C177.262 22.9287 176.829 22.7554 176.41 22.5387C176.006 22.3076 175.673 21.9971 175.413 21.6071C175.153 21.2171 175.023 20.7115 175.023 20.0904C175.023 19.4259 175.175 18.8554 175.478 18.3787C175.796 17.9021 176.237 17.5337 176.8 17.2737C177.378 17.0137 178.064 16.8837 178.858 16.8837C179.696 16.8837 180.433 17.0354 181.068 17.3387C181.718 17.6276 182.26 18.0682 182.693 18.6604L181.177 20.1771C180.873 19.8015 180.527 19.5198 180.137 19.3321C179.747 19.1443 179.299 19.0504 178.793 19.0504C178.317 19.0504 177.948 19.1226 177.688 19.2671C177.428 19.4115 177.298 19.6209 177.298 19.8954C177.298 20.1843 177.428 20.4082 177.688 20.5671C177.948 20.7259 178.281 20.8632 178.685 20.9787C179.104 21.0943 179.537 21.2243 179.985 21.3687C180.447 21.4987 180.881 21.6865 181.285 21.9321C181.704 22.1632 182.043 22.4809 182.303 22.8854C182.563 23.2754 182.693 23.7882 182.693 24.4237C182.693 25.4348 182.339 26.2365 181.632 26.8287C180.924 27.4209 179.963 27.7171 178.75 27.7171Z" fill="#262626"/>
</svg>
