<svg width="35" height="34" viewBox="0 0 35 34" fill="none" xmlns="http://www.w3.org/2000/svg">
<path d="M16.2715 6.42156C14.1246 5.04729 11.5716 4.25 8.83398 4.25C7.2215 4.25 5.67136 4.52675 4.22991 5.03623C3.80534 5.18629 3.52148 5.58769 3.52148 6.038V26.2255C3.52148 26.5704 3.6889 26.8939 3.97051 27.093C4.25212 27.2921 4.61287 27.3422 4.93806 27.2273C6.15523 26.7971 7.46607 26.5625 8.83398 26.5625C11.6603 26.5625 14.2503 27.5644 16.2715 29.2339V6.42156Z" fill="#262626"/>
<path d="M18.3965 29.2339C20.4177 27.5644 23.0077 26.5625 25.834 26.5625C27.2019 26.5625 28.5127 26.7971 29.7299 27.2273C30.0551 27.3422 30.4159 27.2921 30.6975 27.093C30.9791 26.8939 31.1465 26.5704 31.1465 26.2255V6.038C31.1465 5.58769 30.8626 5.18629 30.4381 5.03623C28.9966 4.52675 27.4465 4.25 25.834 4.25C23.0963 4.25 20.5434 5.04729 18.3965 6.42156V29.2339Z" fill="#262626"/>
</svg>
