<svg width="34" height="34" viewBox="0 0 34 34" fill="none" xmlns="http://www.w3.org/2000/svg">
<path d="M6.48241 23.5118L6.85167 24.9108C7.31939 26.7297 8.34101 27.6624 10.3719 27.6624H23.6282C25.6715 27.6624 26.6807 26.753 27.1607 24.9108L27.53 23.5118H6.48241ZM6.07624 21.9145H27.9485L30.2625 12.9371L29.2532 12.3891L23.579 16.3065C23.1605 16.5864 22.8774 16.4814 22.6435 16.1667L17.3016 8.51835L16.7108 8.49503L11.3197 16.2016C11.1104 16.5047 10.8643 16.598 10.4458 16.3182L4.8823 12.4707L3.70068 12.7622L6.07624 21.9145ZM4.1561 15.2689C5.78083 15.2689 7.08553 14.0214 7.08553 12.4707C7.08553 10.9551 5.78083 9.6959 4.1561 9.6959C2.53137 9.6959 1.21436 10.9434 1.21436 12.4707C1.21436 14.0214 2.54367 15.2689 4.1561 15.2689ZM17.0063 10.4188C18.6186 10.4188 19.9356 9.17125 19.9356 7.63226C19.9356 6.11659 18.6186 4.85742 17.0063 4.85742C15.3692 4.85742 14.0645 6.10494 14.0645 7.63226C14.0645 9.17125 15.3815 10.4188 17.0063 10.4188ZM29.844 15.2689C31.4565 15.2689 32.7858 14.0214 32.7858 12.4707C32.7858 10.9434 31.4688 9.6959 29.844 9.6959C28.2317 9.6959 26.9147 10.9551 26.9147 12.4707C26.9147 14.0214 28.2317 15.2689 29.844 15.2689Z" fill="#262626"/>
</svg>
