<svg width="35" height="34" viewBox="0 0 35 34" fill="none" xmlns="http://www.w3.org/2000/svg">
<path d="M26.3647 3.1875C24.8977 3.1875 23.7085 4.37674 23.7085 5.84375V28.1562C23.7085 29.6233 24.8977 30.8125 26.3647 30.8125H27.4272C28.8943 30.8125 30.0835 29.6233 30.0835 28.1562V5.84375C30.0835 4.37674 28.8943 3.1875 27.4272 3.1875H26.3647Z" fill="#262626"/>
<path d="M14.146 12.2188C14.146 10.7517 15.3352 9.5625 16.8022 9.5625H17.8647C19.3318 9.5625 20.521 10.7517 20.521 12.2188V28.1562C20.521 29.6233 19.3318 30.8125 17.8647 30.8125H16.8022C15.3352 30.8125 14.146 29.6233 14.146 28.1562V12.2188Z" fill="#262626"/>
<path d="M4.5835 18.5938C4.5835 17.1267 5.77274 15.9375 7.23975 15.9375H8.30225C9.76925 15.9375 10.9585 17.1267 10.9585 18.5938V28.1562C10.9585 29.6233 9.76925 30.8125 8.30225 30.8125H7.23975C5.77274 30.8125 4.5835 29.6233 4.5835 28.1562V18.5938Z" fill="#262626"/>
</svg>
