<svg width="34" height="34" viewBox="0 0 34 34" fill="none" xmlns="http://www.w3.org/2000/svg">
<path d="M16.5747 3.97462C16.8459 3.85612 17.1543 3.85612 17.4255 3.97462C22.6938 6.27645 27.6869 9.09031 32.3418 12.3532C32.6787 12.5893 32.849 12.9987 32.779 13.404C32.709 13.8094 32.4112 14.138 32.0147 14.2474C31.0444 14.5152 30.0824 14.8037 29.1292 15.1111C25.2602 16.3589 21.5358 17.9289 17.9876 19.7896L17.983 19.792C17.8221 19.8764 17.6616 19.9613 17.5015 20.0469C17.1886 20.2141 16.8129 20.2141 16.5 20.0469C16.3384 19.9605 16.1763 19.8747 16.0139 19.7896C14.2594 18.8695 12.4618 18.0205 10.625 17.2465V16.9296C10.625 16.7435 10.7205 16.5784 10.8683 16.4888C13.0005 15.197 15.2 14.0051 17.46 12.9196C17.989 12.6655 18.2118 12.0307 17.9577 11.5018C17.7037 10.9728 17.0689 10.75 16.54 11.0041C14.2177 12.1195 11.9579 13.3442 9.7672 14.6713C9.12491 15.0605 8.69313 15.6973 8.5511 16.4108C7.33996 15.9449 6.1129 15.511 4.87091 15.1104C3.91774 14.8031 2.95579 14.5152 1.98552 14.2474C1.58897 14.1379 1.29124 13.8094 1.22122 13.404C1.15121 12.9986 1.3215 12.5893 1.65837 12.3531C6.31331 9.0903 11.3064 6.27645 16.5747 3.97462Z" fill="#262626"/>
<path d="M18.5029 21.9211C21.958 20.0751 25.588 18.5144 29.3616 17.2705C29.5517 19.2748 29.6732 21.299 29.7235 23.3407C29.7343 23.7788 29.475 24.1785 29.0706 24.3474C25.0315 26.0337 21.1896 28.0987 17.5892 30.498C17.2324 30.7358 16.7676 30.7358 16.4108 30.498C12.8105 28.0987 8.96853 26.0337 4.92943 24.3474C4.52506 24.1785 4.26581 23.7788 4.2766 23.3407C4.32691 21.2988 4.44835 19.2745 4.63855 17.27C5.9433 17.7001 7.23088 18.168 8.5 18.6725V20.4722C7.86484 20.8397 7.4375 21.5264 7.4375 22.313C7.4375 23.0147 7.77761 23.6369 8.30198 24.0239C8.17516 24.5631 7.98748 25.0908 7.73892 25.5961C8.38024 25.8987 9.01607 26.2112 9.64622 26.5331C10.0051 25.8032 10.2653 25.037 10.4269 24.2548C11.1697 23.9236 11.6875 23.1788 11.6875 22.313C11.6875 21.5264 11.2602 20.8397 10.625 20.4722V19.5588C12.2845 20.2839 13.91 21.0723 15.4986 21.9211C16.4372 22.4227 17.5643 22.4227 18.5029 21.9211Z" fill="#262626"/>
<path d="M6.32148 27.572C6.91525 26.9783 7.38795 26.3095 7.73892 25.5961C8.38024 25.8987 9.01607 26.2112 9.64622 26.5331C9.19494 27.4509 8.58732 28.3114 7.82408 29.0746C7.40915 29.4896 6.73641 29.4896 6.32148 29.0746C5.90655 28.6597 5.90655 27.987 6.32148 27.572Z" fill="#262626"/>
</svg>
