<svg width="34" height="34" viewBox="0 0 34 34" fill="none" xmlns="http://www.w3.org/2000/svg">
<path d="M9.56231 19.125C12.4963 19.1251 14.8748 21.5035 14.8748 24.4375C14.8748 28.5451 11.5449 31.8749 7.43731 31.875C4.67965 31.875 2.27424 30.3732 0.991022 28.1484C0.795233 27.8089 0.801603 27.3894 1.0086 27.0566C1.21581 26.7238 1.59004 26.5318 1.98126 26.5576C2.02877 26.5608 2.07677 26.5625 2.12481 26.5625C3.29834 26.5624 4.24981 25.611 4.24981 24.4375C4.24981 21.5035 6.62827 19.125 9.56231 19.125ZM13.9715 13.5459C16.9127 14.7379 19.2595 17.0854 20.452 20.0264C19.4905 20.747 18.4801 21.4062 17.4236 21.9932L16.7107 22.3887C16.007 19.9286 14.0704 17.9906 11.6102 17.2871L12.0057 16.5752C12.5926 15.5187 13.2508 14.5075 13.9715 13.5459ZM29.1805 2.125C30.668 2.125 31.8747 3.33083 31.8748 4.81836C31.8748 5.35011 31.7166 5.87004 31.4217 6.3125L26.6248 13.5078C25.3353 15.4421 23.8004 17.19 22.0672 18.7148C20.6945 15.7201 18.278 13.304 15.283 11.9316C16.8079 10.1982 18.5566 8.66365 20.491 7.37402L27.6863 2.57715C28.1287 2.28226 28.6489 2.1251 29.1805 2.125Z" fill="#262626"/>
</svg>
